<svg id="Layer_1" data-name="Layer 1" xmlns="http://www.w3.org/2000/svg" viewBox="0 0 243.99 296.94"><defs><style>.cls-1{fill:#ed1c24;}</style></defs><path d="M428,401.34V545.56c0,4.25,0,4.25-4.27,4.25H188.28c-4.27,0-4.27,0-4.27-4.25V257.13c0-4.25,0-4.25,4.27-4.25H423.73c4.26,0,4.27,0,4.27,4.25Zm-236.47-.25V538.58c0,3.71,0,3.71,3.72,3.71H416.74c3.73,0,3.74,0,3.74-3.7V264.11c0-3.71,0-3.72-3.73-3.72H195.27c-3.74,0-3.74,0-3.74,3.71Z" transform="translate(-184.01 -252.88)"/><path d="M215.54,437.78c1.23-3.07,2.27-5.76,3.38-8.41q26.24-63.08,52.5-126.14c1.95-4.69,4-9.34,5.86-14.06.73-1.86,1.71-2.78,3.86-2.7,6.63.26,5.15-1,8,5.81Q315.71,356,342.22,419.79c2.14,5.15,4.31,10.28,6.44,15.44,1,2.38.71,2.77-1.81,2.85-4.85.15-4.86.15-6.72-4.32-4.62-11.15-9.29-22.29-13.82-33.47-.9-2.23-2.07-3.16-4.59-3.15q-39.12.14-78.24,0c-2.44,0-3.69.75-4.62,3.08-4.62,11.51-9.53,22.91-14.11,34.44-1.08,2.73-2.55,3.87-5.38,3.43C218.27,437.93,217.14,437.91,215.54,437.78Zm67.24-142.89a26,26,0,0,0-1.54,2.59q-18.51,44.77-37,89.56c-1.56,3.77-1.43,4,2.8,4h71.24c.66,0,1.33,0,2,0,1.33-.09,1.73-.81,1.3-2-.22-.63-.45-1.25-.71-1.86q-16.32-39.6-32.66-79.2C286.52,303.74,284.77,299.65,282.78,294.89Z" transform="translate(-184.01 -252.88)"/><path class="cls-1" d="M377.21,435.72V364c0-3.88,1.9-5.22,5.67-3.94a2.21,2.21,0,0,1,1.13,1.39,10.3,10.3,0,0,1,.09,2.49q0,71.73,0,143.47c0,3.65-2.29,5.18-5.75,3.77a2.27,2.27,0,0,1-1.06-1.47,10.84,10.84,0,0,1-.08-2.49Z" transform="translate(-184.01 -252.88)"/></svg>